<svg id="圖層_1" data-name="圖層 1" xmlns="http://www.w3.org/2000/svg" viewBox="0 0 64 64"><defs><style>.cls-1{fill:#666;}.cls-2{fill:#2090d6;}</style></defs><path class="cls-1" d="M58.87,36.46a5.47,5.47,0,0,1-1.23,4,5.62,5.62,0,0,1-4.07,1.36h-.15L39.16,40.41v-.25c0-.12,0-.21,0-.32s0-.08,0-.11v-2l14.49,1.45a3.12,3.12,0,0,0,2.11-.56,3.4,3.4,0,0,0,.44-2.13c0-1.73-.53-2.06-2-2.88l-15.1-7v-3l16.29,7.51a.37.37,0,0,1,.12.07C57.17,32.18,58.87,33.17,58.87,36.46Z"/><path class="cls-1" d="M8.41,34.47c-.19.19-.59.6-.59,1.94,0,1.84.11,2.67,2.61,2.7l14.4-1.44V40a2.06,2.06,0,0,0,0,.34v0L10.63,41.8h-.15c-5.36,0-5.36-3.79-5.36-5.39A5,5,0,0,1,6.5,32.55a10,10,0,0,1,2-1.38l.11-.05,16.27-7.45v3L9.76,33.54A6.89,6.89,0,0,0,8.41,34.47Z"/><path class="cls-2" d="M47.66,57.57a3.63,3.63,0,0,0-1.12-1.91A7.45,7.45,0,0,0,45.6,55h0l-6.39-4,0-10.52v-.25c0-.12,0-.21,0-.32s0-.08,0-.11V7.86C39.11,4.07,36.25,0,32,0A6.78,6.78,0,0,0,27.24,2a8.32,8.32,0,0,0-2.4,5.83V40a2.06,2.06,0,0,0,0,.34V50.92l-6.15,3.7a5.91,5.91,0,0,0-1.18.87,4.32,4.32,0,0,0-1.25,3.33V59a5.58,5.58,0,0,0,.9,3.6A3.65,3.65,0,0,0,20,64a3.21,3.21,0,0,0,.88-.1h0L32,61l11.08,2.88a3.45,3.45,0,0,0,.9.1,3.62,3.62,0,0,0,2.55-1,3.58,3.58,0,0,0,.7-1v0a7.79,7.79,0,0,0,.56-3.21v-.1A5,5,0,0,0,47.66,57.57Zm-3.28,3-.09.13a.57.57,0,0,1-.33.13h-.11l-11.6-3a.66.66,0,0,0-.28-.05.65.65,0,0,0-.27.05l-11.59,3H20a.47.47,0,0,1-.37-.19c-.14-.18-.28-.51-.26-1.63,0-.18,0-.32,0-.37a1.11,1.11,0,0,1,.33-.93,2.55,2.55,0,0,1,.57-.41L27.41,53a1.07,1.07,0,0,0,.53-.93l0-11.71a.89.89,0,0,1,0-.15V7.86a5.17,5.17,0,0,1,1.48-3.59A3.6,3.6,0,0,1,32,3.16c2.32,0,4,2.48,4,4.71L36,40a.7.7,0,0,1,0,.12l0,11.92a1.1,1.1,0,0,0,.51.91l7.35,4.64.55.37a.51.51,0,0,1,.15.25,2.9,2.9,0,0,1,0,.41A5.29,5.29,0,0,1,44.38,60.59Z"/></svg>