<svg id="圖層_1" data-name="圖層 1" xmlns="http://www.w3.org/2000/svg" viewBox="0 0 64 64"><defs><style>.cls-1{fill:#2090d6;}.cls-2{fill:#666;}</style></defs><path class="cls-1" d="M42.1,5.43,31,.16A1.56,1.56,0,0,0,28.7,1.58V18.17h3.15v-6.8l10-3a1.59,1.59,0,0,0,.23-3ZM31.85,8.08v-4L37,6.52Z"/><path class="cls-2" d="M43,22.62V59.3a4.18,4.18,0,0,1-.18,1.24,4.43,4.43,0,0,1-4.26,3.21H25.7a4,4,0,0,0,2.5-3H38.56a1.41,1.41,0,0,0,1-.37A1.47,1.47,0,0,0,40,59.3V22.62a1.48,1.48,0,0,0-1.48-1.48H24.81a1.47,1.47,0,0,0-1.48,1.48v13h-3v-13a4.44,4.44,0,0,1,4.44-4.45H38.56A4.45,4.45,0,0,1,43,22.62Z"/><path class="cls-1" d="M24.33,35.58H10.18A3.93,3.93,0,0,0,6.25,39.5V60.07A3.93,3.93,0,0,0,10.18,64H24.33a3.87,3.87,0,0,0,1.37-.24,4,4,0,0,0,2.5-3,4.28,4.28,0,0,0,.06-.72V39.5A3.93,3.93,0,0,0,24.33,35.58Zm-14.15,25a.48.48,0,0,1-.47-.47V39.5a.48.48,0,0,1,.47-.47H24.33a.48.48,0,0,1,.48.47V60.07a.48.48,0,0,1-.48.47Z"/><path class="cls-1" d="M53.56,29.4H43v3.46H53.56a.74.74,0,0,1,.73.73V59.81a.74.74,0,0,1-.73.73H42.83a4.45,4.45,0,0,1-4.27,3.21h-.05a4.14,4.14,0,0,0,1.41.25H53.56a4.2,4.2,0,0,0,4.19-4.19V33.59A4.2,4.2,0,0,0,53.56,29.4Z"/><path class="cls-1" d="M31.68,34.14a5.54,5.54,0,1,1,5.54-5.54A5.54,5.54,0,0,1,31.68,34.14Zm0-8.11a2.58,2.58,0,1,0,2.58,2.57A2.58,2.58,0,0,0,31.68,26Z"/></svg>